<mxfile host="Electron" agent="Mozilla/5.0 (X11; Linux x86_64) AppleWebKit/537.36 (KHTML, like Gecko) draw.io/24.7.5 Chrome/126.0.6478.183 Electron/31.3.0 Safari/537.36" version="24.7.5">
  <diagram name="第 1 页" id="8K0k4XX89DtukpqlePmI">
    <mxGraphModel dx="970" dy="669" grid="1" gridSize="10" guides="1" tooltips="1" connect="1" arrows="1" fold="1" page="1" pageScale="1" pageWidth="1169" pageHeight="827" math="0" shadow="0">
      <root>
        <mxCell id="0" />
        <mxCell id="1" parent="0" />
        <mxCell id="tjns_Up8kxdDHkTL4ZTK-1" value="" style="rounded=0;whiteSpace=wrap;html=1;fillColor=#f5f5f5;fontColor=#333333;strokeColor=default;" vertex="1" parent="1">
          <mxGeometry x="160" y="240" width="80" height="200" as="geometry" />
        </mxCell>
        <mxCell id="tjns_Up8kxdDHkTL4ZTK-21" style="edgeStyle=orthogonalEdgeStyle;rounded=0;orthogonalLoop=1;jettySize=auto;html=1;exitX=1;exitY=0.25;exitDx=0;exitDy=0;entryX=0;entryY=0.25;entryDx=0;entryDy=0;startArrow=classic;startFill=1;endArrow=none;endFill=0;" edge="1" parent="1" source="tjns_Up8kxdDHkTL4ZTK-2" target="tjns_Up8kxdDHkTL4ZTK-6">
          <mxGeometry relative="1" as="geometry" />
        </mxCell>
        <mxCell id="tjns_Up8kxdDHkTL4ZTK-2" value="协程A" style="rounded=0;whiteSpace=wrap;html=1;fillColor=#dae8fc;strokeColor=default;" vertex="1" parent="1">
          <mxGeometry x="160" y="370" width="80" height="70" as="geometry" />
        </mxCell>
        <mxCell id="tjns_Up8kxdDHkTL4ZTK-3" value="内核栈" style="text;html=1;align=center;verticalAlign=middle;whiteSpace=wrap;rounded=0;" vertex="1" parent="1">
          <mxGeometry x="170" y="210" width="60" height="30" as="geometry" />
        </mxCell>
        <mxCell id="tjns_Up8kxdDHkTL4ZTK-5" value="" style="rounded=0;whiteSpace=wrap;html=1;fillColor=#f5f5f5;fontColor=#333333;strokeColor=default;" vertex="1" parent="1">
          <mxGeometry x="320" y="240" width="80" height="200" as="geometry" />
        </mxCell>
        <mxCell id="tjns_Up8kxdDHkTL4ZTK-6" value="协程A" style="rounded=0;whiteSpace=wrap;html=1;fillColor=#dae8fc;strokeColor=default;" vertex="1" parent="1">
          <mxGeometry x="320" y="370" width="80" height="70" as="geometry" />
        </mxCell>
        <mxCell id="tjns_Up8kxdDHkTL4ZTK-7" value="内核栈" style="text;html=1;align=center;verticalAlign=middle;whiteSpace=wrap;rounded=0;" vertex="1" parent="1">
          <mxGeometry x="329" y="210" width="60" height="30" as="geometry" />
        </mxCell>
        <mxCell id="tjns_Up8kxdDHkTL4ZTK-8" value="中断上下文" style="rounded=0;whiteSpace=wrap;html=1;fillColor=#fff2cc;strokeColor=default;" vertex="1" parent="1">
          <mxGeometry x="320" y="350" width="80" height="20" as="geometry" />
        </mxCell>
        <mxCell id="tjns_Up8kxdDHkTL4ZTK-9" value="" style="rounded=0;whiteSpace=wrap;html=1;fillColor=#f5f5f5;fontColor=#333333;strokeColor=default;" vertex="1" parent="1">
          <mxGeometry x="480" y="240" width="80" height="200" as="geometry" />
        </mxCell>
        <mxCell id="tjns_Up8kxdDHkTL4ZTK-22" style="edgeStyle=orthogonalEdgeStyle;rounded=0;orthogonalLoop=1;jettySize=auto;html=1;exitX=0;exitY=0.25;exitDx=0;exitDy=0;entryX=1;entryY=0.25;entryDx=0;entryDy=0;" edge="1" parent="1" source="tjns_Up8kxdDHkTL4ZTK-10" target="tjns_Up8kxdDHkTL4ZTK-6">
          <mxGeometry relative="1" as="geometry" />
        </mxCell>
        <mxCell id="tjns_Up8kxdDHkTL4ZTK-10" value="协程A" style="rounded=0;whiteSpace=wrap;html=1;fillColor=#dae8fc;strokeColor=default;" vertex="1" parent="1">
          <mxGeometry x="480" y="370" width="80" height="70" as="geometry" />
        </mxCell>
        <mxCell id="tjns_Up8kxdDHkTL4ZTK-11" value="内核栈" style="text;html=1;align=center;verticalAlign=middle;whiteSpace=wrap;rounded=0;" vertex="1" parent="1">
          <mxGeometry x="490" y="210" width="60" height="30" as="geometry" />
        </mxCell>
        <mxCell id="tjns_Up8kxdDHkTL4ZTK-12" value="中断上下文" style="rounded=0;whiteSpace=wrap;html=1;fillColor=#fff2cc;strokeColor=default;" vertex="1" parent="1">
          <mxGeometry x="480" y="350" width="80" height="20" as="geometry" />
        </mxCell>
        <mxCell id="tjns_Up8kxdDHkTL4ZTK-13" value="协程B" style="rounded=0;whiteSpace=wrap;html=1;fillColor=#f8cecc;strokeColor=default;" vertex="1" parent="1">
          <mxGeometry x="480" y="280" width="80" height="70" as="geometry" />
        </mxCell>
        <mxCell id="tjns_Up8kxdDHkTL4ZTK-15" value="" style="endArrow=classic;html=1;rounded=0;exitX=1;exitY=0.25;exitDx=0;exitDy=0;" edge="1" parent="1" source="tjns_Up8kxdDHkTL4ZTK-1">
          <mxGeometry width="50" height="50" relative="1" as="geometry">
            <mxPoint x="340" y="340" as="sourcePoint" />
            <mxPoint x="320" y="290" as="targetPoint" />
          </mxGeometry>
        </mxCell>
        <mxCell id="tjns_Up8kxdDHkTL4ZTK-16" value="内核态中断" style="text;html=1;align=center;verticalAlign=middle;whiteSpace=wrap;rounded=0;" vertex="1" parent="1">
          <mxGeometry x="240" y="260" width="80" height="30" as="geometry" />
        </mxCell>
        <mxCell id="tjns_Up8kxdDHkTL4ZTK-17" value="" style="endArrow=classic;html=1;rounded=0;exitX=1;exitY=0.25;exitDx=0;exitDy=0;" edge="1" parent="1">
          <mxGeometry width="50" height="50" relative="1" as="geometry">
            <mxPoint x="400" y="290" as="sourcePoint" />
            <mxPoint x="480" y="290" as="targetPoint" />
          </mxGeometry>
        </mxCell>
        <mxCell id="tjns_Up8kxdDHkTL4ZTK-18" value="内核态抢占" style="text;html=1;align=center;verticalAlign=middle;whiteSpace=wrap;rounded=0;" vertex="1" parent="1">
          <mxGeometry x="400" y="260" width="80" height="30" as="geometry" />
        </mxCell>
        <mxCell id="tjns_Up8kxdDHkTL4ZTK-20" value="抢占返回" style="text;html=1;align=center;verticalAlign=middle;whiteSpace=wrap;rounded=0;" vertex="1" parent="1">
          <mxGeometry x="400" y="360" width="80" height="30" as="geometry" />
        </mxCell>
        <mxCell id="tjns_Up8kxdDHkTL4ZTK-23" value="中断返回" style="text;html=1;align=center;verticalAlign=middle;whiteSpace=wrap;rounded=0;" vertex="1" parent="1">
          <mxGeometry x="240" y="360" width="80" height="30" as="geometry" />
        </mxCell>
      </root>
    </mxGraphModel>
  </diagram>
</mxfile>
